<svg width="24" height="24" viewBox="0 0 24 24" fill="none" xmlns="http://www.w3.org/2000/svg">
<g clip-path="url(#clip0_2470_8308)">
<path d="M12 24C18.6274 24 24 18.6274 24 12C24 5.37258 18.6274 0 12 0C5.37258 0 0 5.37258 0 12C0 18.6274 5.37258 24 12 24Z" fill="#FFCE33"/>
<path d="M11.9999 21.6014C17.2107 21.6014 21.4349 17.3772 21.4349 12.1664C21.4349 6.95564 17.2107 2.73145 11.9999 2.73145C6.78913 2.73145 2.56494 6.95564 2.56494 12.1664C2.56494 17.3772 6.78913 21.6014 11.9999 21.6014Z" fill="#F28A00"/>
<path d="M13.1536 14.5814C13.1536 14.2153 13.0631 13.928 12.8827 13.7198C12.7022 13.5113 12.3844 13.3144 11.9306 13.1292C11.4764 12.9441 11.0573 12.7566 10.673 12.5662C10.2886 12.3764 9.95719 12.1561 9.67922 11.9062C9.40125 11.6559 9.18797 11.3667 9.03984 11.0377C8.89172 10.7086 8.81766 10.3102 8.81766 9.84234C8.81766 9.05953 9.08156 8.41406 9.60984 7.90687C10.1381 7.39969 10.8422 7.10437 11.7225 7.02094V5.55469H12.8273V7.04859C13.6753 7.17375 14.3409 7.5225 14.8252 8.09437C15.3094 8.66672 15.5512 9.39281 15.5512 10.2731H13.2023C13.2023 9.79125 13.1095 9.42094 12.9244 9.16125C12.7392 8.90203 12.4748 8.77219 12.1322 8.77219C11.8266 8.77219 11.5889 8.86828 11.4197 9.06047C11.2505 9.25266 11.1661 9.51797 11.1661 9.85594C11.1661 10.1939 11.2636 10.4709 11.4581 10.6725C11.6527 10.8741 11.9653 11.0662 12.3961 11.2491C12.8269 11.4323 13.2333 11.6222 13.6158 11.8191C13.9978 12.0159 14.3283 12.2395 14.6062 12.4898C14.8842 12.7402 15.1017 13.0317 15.2597 13.3655C15.4172 13.6992 15.4959 14.1 15.4959 14.5678C15.4959 15.36 15.2447 16.0064 14.7417 16.5066C14.2387 17.0067 13.5544 17.2987 12.6881 17.3822V18.7791H11.5833V17.3752C10.5731 17.2683 9.79828 16.9223 9.25875 16.3364C8.71875 15.7505 8.44922 14.978 8.44922 14.0189H10.7911C10.7911 14.5472 10.9078 14.9489 11.1422 15.2245C11.3761 15.5002 11.7084 15.638 12.1392 15.638C12.4542 15.638 12.7022 15.5442 12.8827 15.3567C13.0631 15.1692 13.1536 14.9109 13.1536 14.5819V14.5814Z" fill="#FFCE33"/>
</g>
<defs>
<clipPath id="clip0_2470_8308">
<rect width="24" height="24" fill="white"/>
</clipPath>
</defs>
</svg>
