<svg width="40" height="40" viewBox="0 0 40 40" fill="none" xmlns="http://www.w3.org/2000/svg">
<path d="M36.6666 21.6666C36.4477 21.6667 36.2309 21.6236 36.0287 21.5399C35.8265 21.4561 35.6427 21.3334 35.4879 21.1786C35.3332 21.0238 35.2104 20.8401 35.1267 20.6378C35.0429 20.4356 34.9998 20.2188 34.9999 20V9.99996C34.9985 8.67432 34.4712 7.40339 33.5338 6.46602C32.5965 5.52866 31.3255 5.00141 29.9999 4.99996H9.9999C8.67426 5.00141 7.40333 5.52866 6.46596 6.46602C5.52859 7.40339 5.00135 8.67432 4.9999 9.99996V20C4.9999 20.442 4.8243 20.8659 4.51174 21.1785C4.19918 21.491 3.77526 21.6666 3.33323 21.6666C2.8912 21.6666 2.46728 21.491 2.15472 21.1785C1.84216 20.8659 1.66656 20.442 1.66656 20V9.99996C1.66916 7.79062 2.54797 5.67251 4.11021 4.11027C5.67245 2.54803 7.79056 1.66922 9.9999 1.66663H29.9999C32.2092 1.66922 34.3274 2.54803 35.8896 4.11027C37.4518 5.67251 38.3306 7.79062 38.3332 9.99996V20C38.3333 20.2188 38.2902 20.4356 38.2065 20.6378C38.1227 20.8401 38 21.0238 37.8452 21.1786C37.6904 21.3334 37.5067 21.4561 37.3044 21.5399C37.1022 21.6236 36.8855 21.6667 36.6666 21.6666Z" fill="#ED5A25"/>
<path d="M31.6666 38.3333H8.33323C7.8912 38.3333 7.46728 38.1577 7.15472 37.8452C6.84216 37.5326 6.66656 37.1087 6.66656 36.6667C6.66656 36.2246 6.84216 35.8007 7.15472 35.4882C7.46728 35.1756 7.8912 35 8.33323 35H31.6666C32.1086 35 32.5325 35.1756 32.8451 35.4882C33.1576 35.8007 33.3332 36.2246 33.3332 36.6667C33.3332 37.1087 33.1576 37.5326 32.8451 37.8452C32.5325 38.1577 32.1086 38.3333 31.6666 38.3333Z" fill="#ED5A25"/>
<path d="M28.5564 6.66663H11.4437C10.1655 6.6802 8.94474 7.20013 8.04924 8.11241C7.15374 9.02469 6.65656 10.2549 6.66672 11.5332V28.4668C6.65656 29.7451 7.15374 30.9752 8.04924 31.8875C8.94474 32.7998 10.1655 33.3197 11.4437 33.3333H28.5564C29.8346 33.3197 31.0554 32.7998 31.9509 31.8875C32.8464 30.9752 33.3435 29.7451 33.3334 28.4668V11.5332C33.3435 10.2549 32.8464 9.02469 31.9509 8.11241C31.0554 7.20013 29.8346 6.6802 28.5564 6.66663ZM26.1784 22.845L22.3568 26.6666C21.7314 27.2909 20.8838 27.6416 20.0001 27.6416C19.1163 27.6416 18.2687 27.2909 17.6433 26.6666L13.8217 22.845C13.5139 22.5315 13.3423 22.1091 13.3443 21.6698C13.3462 21.2304 13.5217 20.8096 13.8323 20.4989C14.143 20.1882 14.5638 20.0128 15.0032 20.0108C15.4425 20.0088 15.8649 20.1804 16.1784 20.4883L18.3334 22.6432V15C18.3334 14.5579 18.509 14.134 18.8215 13.8214C19.1341 13.5089 19.558 13.3333 20.0001 13.3333C20.4421 13.3333 20.866 13.5089 21.1786 13.8214C21.4911 14.134 21.6667 14.5579 21.6667 15V22.6432L23.8217 20.4882C24.1349 20.1789 24.5578 20.0061 24.9979 20.0075C25.4381 20.0089 25.8598 20.1844 26.171 20.4956C26.4823 20.8069 26.6577 21.2286 26.6591 21.6688C26.6605 22.1089 26.4877 22.5318 26.1784 22.845Z" fill="#ED5A25"/>
</svg>
