<svg width="40" height="40" viewBox="0 0 40 40" fill="none" xmlns="http://www.w3.org/2000/svg">
<g clip-path="url(#clip0_233_3551)">
<path d="M20 9.60938C14.4772 9.60938 10 14.2614 10 20C10 25.7386 14.4772 30.3906 20 30.3906C25.5228 30.3906 30 25.7386 30 20C30 14.2614 25.5228 9.60938 20 9.60938ZM21.1719 26.1323V27.5345H18.8281V26.1352C17.047 25.9075 15.6655 24.3831 15.6655 22.5411H18.0092C18.0092 23.2473 18.5837 23.8218 19.2899 23.8218H20.6858C21.4164 23.8218 22.0107 23.2274 22.0107 22.4969C22.0107 21.7662 21.4164 21.172 20.6858 21.172H19.3143C17.2913 21.172 15.6456 19.5262 15.6456 17.5033C15.6456 15.6452 17.0343 14.1065 18.8281 13.8677V12.4656H21.1719V13.8717C22.9513 14.1241 24.3245 15.6567 24.3245 17.5048H21.9808C21.9808 16.7734 21.3857 16.1783 20.6543 16.1783H19.3143C18.5837 16.1783 17.9894 16.7727 17.9894 17.5032C17.9894 18.2338 18.5837 18.8281 19.3143 18.8281H20.6858C22.7088 18.8281 24.3545 20.4739 24.3545 22.4968C24.3544 24.3548 22.9657 25.8936 21.1719 26.1323Z" fill="#ED5A25"/>
<path d="M35 20C35 28.2843 28.2843 35 20 35C15.8579 35 12.1079 33.3211 9.39347 30.6066L11.4826 28.5174C11.4075 28.3173 11.3985 28.2931 11.3233 28.093L3.05034 27.5351C2.9437 27.6417 2.89183 27.6936 2.78519 27.8002L3.34308 36.0732C3.54323 36.1484 3.56737 36.1573 3.76753 36.2325L5.85784 34.1421C9.47722 37.7614 14.4772 40 20 40C31.0457 40 40 31.0457 40 20H35Z" fill="#ED5A25"/>
<path d="M20 5C24.1421 5 27.8921 6.67891 30.6066 9.39336L30.6061 9.39383L28.5163 11.4836C28.5914 11.6838 28.6005 11.7079 28.6756 11.908L36.9486 12.4659C37.0552 12.3593 37.1071 12.3074 37.2138 12.2008L36.6559 3.92781C36.4557 3.85266 36.4316 3.84367 36.2314 3.76852L34.142 5.85781C30.5228 2.23859 25.5228 0 20 0C8.9543 0 0 8.9543 0 20H5C5 11.7157 11.7157 5 20 5Z" fill="#ED5A25"/>
</g>
<defs>
<clipPath id="clip0_233_3551">
<rect width="40" height="40" fill="white"/>
</clipPath>
</defs>
</svg>
