<svg width="34" height="35" viewBox="0 0 34 35" fill="none" xmlns="http://www.w3.org/2000/svg">
<path d="M31.2138 4.8984C31.1538 4.44714 30.8438 4.07594 30.4249 3.95393L16.9972 0.0418627C16.8058 -0.0139542 16.6036 -0.0139542 16.412 0.0418627L2.9843 3.95393C2.56534 4.07594 2.25542 4.44698 2.19544 4.8984C2.11756 5.48509 0.340837 19.3472 4.89801 26.2432C9.4498 33.131 16.1647 34.8961 16.4482 34.9679C16.5325 34.9893 16.6184 34.9998 16.7046 34.9998C16.7908 34.9998 16.8767 34.9891 16.961 34.9679C17.2447 34.8961 23.9595 33.131 28.5112 26.2432C33.0684 19.3474 31.2916 5.48524 31.2138 4.8984ZM25.3637 12.9913L16.2047 22.5864C15.9916 22.8097 15.7121 22.9215 15.4327 22.9215C15.1534 22.9215 14.8739 22.8099 14.6607 22.5864L8.9978 16.6538C8.79297 16.4394 8.67797 16.1484 8.67797 15.8451C8.67797 15.5418 8.79312 15.2508 8.9978 15.0364L10.1222 13.8584C10.5486 13.4119 11.2399 13.4117 11.6662 13.8584L15.4327 17.8043L22.6954 10.1957C22.9001 9.9811 23.1778 9.86062 23.4674 9.86062C23.7569 9.86062 24.0347 9.9811 24.2393 10.1957L25.3637 11.3736C25.7901 11.8203 25.7901 12.5446 25.3637 12.9913Z" fill="#ED5A25"/>
</svg>
