<svg width="20" height="20" viewBox="0 0 20 20" fill="none" xmlns="http://www.w3.org/2000/svg">
<g id="mdi:password-outline">
<path id="Vector" d="M10.1905 14.5477C9.73586 14.5477 9.29983 14.367 8.97833 14.0456C8.65684 13.7241 8.47623 13.288 8.47623 12.8334C8.47623 11.8819 9.23909 11.1191 10.1905 11.1191C10.6452 11.1191 11.0812 11.2997 11.4027 11.6212C11.7242 11.9427 11.9048 12.3787 11.9048 12.8334C11.9048 13.288 11.7242 13.7241 11.4027 14.0456C11.0812 14.367 10.6452 14.5477 10.1905 14.5477ZM15.3334 17.1191V8.54766H5.04766V17.1191H15.3334ZM15.3334 6.83337C15.788 6.83337 16.2241 7.01399 16.5456 7.33548C16.867 7.65697 17.0477 8.093 17.0477 8.54766V17.1191C17.0477 17.5737 16.867 18.0098 16.5456 18.3313C16.2241 18.6528 15.788 18.8334 15.3334 18.8334H5.04766C4.593 18.8334 4.15697 18.6528 3.83548 18.3313C3.51399 18.0098 3.33337 17.5737 3.33337 17.1191V8.54766C3.33337 7.59623 4.09623 6.83337 5.04766 6.83337H5.9048V5.11909C5.9048 3.98245 6.35633 2.89236 7.16006 2.08863C7.96379 1.2849 9.05388 0.833374 10.1905 0.833374C10.7533 0.833374 11.3106 0.944227 11.8306 1.1596C12.3506 1.37498 12.823 1.69067 13.221 2.08863C13.6189 2.4866 13.9346 2.95905 14.15 3.47902C14.3654 3.99898 14.4762 4.55628 14.4762 5.11909V6.83337H15.3334ZM10.1905 2.54766C9.50853 2.54766 8.85448 2.81858 8.37224 3.30081C7.89001 3.78305 7.61909 4.4371 7.61909 5.11909V6.83337H12.7619V5.11909C12.7619 4.4371 12.491 3.78305 12.0088 3.30081C11.5266 2.81858 10.8725 2.54766 10.1905 2.54766Z" fill="#3E3E3E"/>
</g>
</svg>
