<svg width="20" height="17" viewBox="0 0 20 17" fill="none" xmlns="http://www.w3.org/2000/svg">
<path d="M1.72511 1.94266C1.52901 1.94266 1.34094 2.02056 1.20228 2.15922C1.06362 2.29788 0.985718 2.48595 0.985718 2.68205C0.985718 2.87815 1.06362 3.06621 1.20228 3.20488C1.34094 3.34354 1.52901 3.42144 1.72511 3.42144H3.36656L5.30672 11.185C5.4716 11.8431 6.0609 12.2941 6.73892 12.2941H15.9591C16.6268 12.2941 17.1939 11.8505 17.3691 11.2072L19.2856 4.16083H17.7374L15.9584 10.8153H6.73818L4.79876 3.05174C4.71864 2.73324 4.53396 2.45083 4.27429 2.24974C4.01462 2.04865 3.69498 1.94052 3.36656 1.94266H1.72511ZM15.0341 12.2941C13.8178 12.2941 12.816 13.296 12.816 14.5123C12.816 15.7286 13.8178 16.7305 15.0341 16.7305C16.2504 16.7305 17.2523 15.7286 17.2523 14.5123C17.2523 13.296 16.2504 12.2941 15.0341 12.2941ZM8.37963 12.2941C7.16333 12.2941 6.16145 13.296 6.16145 14.5123C6.16145 15.7286 7.16333 16.7305 8.37963 16.7305C9.59592 16.7305 10.5978 15.7286 10.5978 14.5123C10.5978 13.296 9.59592 12.2941 8.37963 12.2941ZM8.37963 13.7729C8.79664 13.7729 9.11902 14.0953 9.11902 14.5123C9.11902 14.9293 8.79664 15.2517 8.37963 15.2517C7.96261 15.2517 7.64023 14.9293 7.64023 14.5123C7.64023 14.0953 7.96261 13.7729 8.37963 13.7729ZM15.0341 13.7729C15.4512 13.7729 15.7735 14.0953 15.7735 14.5123C15.7735 14.9293 15.4512 15.2517 15.0341 15.2517C14.6171 15.2517 14.2948 14.9293 14.2948 14.5123C14.2948 14.0953 14.6171 13.7729 15.0341 13.7729Z" fill="#ED5A25"/>
<path d="M12.8361 1.03687V3.62964H15.38V4.88647H12.8361V7.46655H11.4835V4.88647H8.95032V3.62964H11.4835V1.03687H12.8361Z" fill="#ED5A25" stroke="#ED5A25" stroke-width="0.337081"/>
</svg>
