<svg width="40" height="40" viewBox="0 0 40 40" fill="none" xmlns="http://www.w3.org/2000/svg">
<g clip-path="url(#clip0_233_3533)">
<path d="M38.1619 20.0014L39.9168 15.4242C40.1093 14.9192 39.9593 14.3468 39.5368 14.0043L35.7321 10.9195L34.9621 6.07735C34.8771 5.54239 34.4572 5.12492 33.9222 5.03992L29.08 4.26998L25.9977 0.462738C25.6578 0.0402669 25.0728 -0.109723 24.5803 0.082764L20.0007 1.84014L15.4235 0.0852638C14.916 -0.109723 14.3485 0.0452666 14.0061 0.465238L10.9213 4.27248L6.0791 5.04242C5.54664 5.12742 5.12667 5.54739 5.04167 6.07985L4.27173 10.922L0.464487 14.0068C0.0445154 14.3468 -0.107974 14.9192 0.0845127 15.4242L1.83939 20.0014L0.0845127 24.5786C-0.110474 25.0836 0.0445154 25.656 0.464487 25.996L4.27173 29.0783L5.04167 33.9205C5.12667 34.4554 5.54414 34.8754 6.0791 34.9604L10.9213 35.7303L14.0061 39.5351C14.3485 39.96 14.921 40.11 15.426 39.915L20.0007 38.1627L24.5778 39.9175C24.7228 39.9725 24.8728 40 25.0253 40C25.3928 40 25.7553 39.8375 25.9977 39.5351L29.08 35.7303L33.9222 34.9604C34.4572 34.8754 34.8771 34.4554 34.9621 33.9205L35.7321 29.0783L39.5368 25.996C39.9593 25.6535 40.1093 25.0836 39.9168 24.5786L38.1619 20.0014Z" fill="#ED5A25"/>
<path d="M16.2506 17.5019C14.1833 17.5019 12.5009 15.8195 12.5009 13.7522C12.5009 11.6848 14.1833 10.0024 16.2506 10.0024C18.318 10.0024 20.0004 11.6848 20.0004 13.7522C20.0004 15.8195 18.318 17.5019 16.2506 17.5019ZM16.2506 12.5023C15.5607 12.5023 15.0007 13.0622 15.0007 13.7522C15.0007 14.4421 15.5607 15.0021 16.2506 15.0021C16.9406 15.0021 17.5005 14.4421 17.5005 13.7522C17.5005 13.0622 16.9406 12.5023 16.2506 12.5023Z" fill="white"/>
<path d="M23.7501 30.0008C21.6828 30.0008 20.0004 28.3184 20.0004 26.2511C20.0004 24.1837 21.6828 22.5013 23.7501 22.5013C25.8175 22.5013 27.4999 24.1837 27.4999 26.2511C27.4999 28.3184 25.8175 30.0008 23.7501 30.0008ZM23.7501 25.0012C23.0627 25.0012 22.5002 25.5636 22.5002 26.2511C22.5002 26.9385 23.0627 27.501 23.7501 27.501C24.4376 27.501 25 26.9385 25 26.2511C25 25.5636 24.4376 25.0012 23.7501 25.0012Z" fill="white"/>
<path d="M13.7514 30.0005C13.4989 30.0005 13.2464 29.9255 13.0264 29.768C12.464 29.3656 12.334 28.5856 12.7365 28.0231L25.2356 10.5243C25.6381 9.96188 26.418 9.83189 26.9805 10.2344C27.543 10.6343 27.6704 11.4168 27.2705 11.9767L14.7713 29.4755C14.5238 29.818 14.1414 30.0005 13.7514 30.0005Z" fill="white"/>
</g>
<defs>
<clipPath id="clip0_233_3533">
<rect width="40" height="40" fill="white"/>
</clipPath>
</defs>
</svg>
