<svg width="37" height="37" viewBox="0 0 37 37" fill="none" xmlns="http://www.w3.org/2000/svg">
<path d="M33.5004 20.2267C32.1457 19.8791 30.8327 19.3854 29.5846 18.7544C29.1992 18.5617 28.8446 18.3767 28.5208 18.1994C27.881 17.8448 27.3723 17.5288 27.0408 17.313C27.0219 17.2997 27.0011 17.2893 26.9792 17.2821C26.7348 17.1397 26.456 17.0672 26.1732 17.0727C25.8904 17.0781 25.6145 17.1612 25.3758 17.313C23.3869 18.6136 21.2076 19.5966 18.9162 20.2267C18.5789 20.3087 18.2787 20.5012 18.0636 20.7737C17.8484 21.0461 17.7307 21.3827 17.7292 21.7298V23.048C17.7283 24.9516 18.198 26.8259 19.0963 28.5042C19.9947 30.1826 21.2938 31.6129 22.8783 32.668L23.5952 33.1459L25.3527 34.3175C25.492 34.4093 25.6458 34.4771 25.8075 34.518H25.8152C25.9416 34.5615 26.0747 34.5824 26.2083 34.5796C26.5129 34.577 26.8102 34.486 27.0639 34.3175L29.5383 32.668C31.1228 31.6129 32.422 30.1826 33.3203 28.5042C34.2187 26.8259 34.6883 24.9516 34.6875 23.048V21.7298C34.6859 21.3827 34.5682 21.0461 34.3531 20.7737C34.1379 20.5012 33.8377 20.3087 33.5004 20.2267ZM29.0681 24.4432L25.9848 27.5265C25.8387 27.6698 25.6422 27.7501 25.4375 27.7501C25.2328 27.7501 25.0363 27.6698 24.8902 27.5265L23.3485 25.9848C23.2034 25.8397 23.1218 25.6428 23.1218 25.4375C23.1218 25.2323 23.2034 25.0354 23.3485 24.8903C23.4937 24.7451 23.6905 24.6636 23.8958 24.6636C24.1011 24.6636 24.298 24.7451 24.4431 24.8903L25.4375 25.8923L27.9735 23.3486C28.0454 23.2767 28.1307 23.2197 28.2246 23.1808C28.3185 23.1419 28.4192 23.1219 28.5208 23.1219C28.6225 23.1219 28.7231 23.1419 28.817 23.1808C28.9109 23.2197 28.9962 23.2767 29.0681 23.3486C29.14 23.4205 29.197 23.5058 29.2359 23.5997C29.2748 23.6936 29.2948 23.7942 29.2948 23.8959C29.2948 23.9975 29.2748 24.0982 29.2359 24.1921C29.197 24.286 29.14 24.3713 29.0681 24.4432Z" fill="#ED5A25"/>
<path d="M27.4263 10.2058L20.8356 3.46873C20.5991 3.22935 20.3321 3.02203 20.0417 2.85206V8.47915C20.0435 9.0919 20.2877 9.67903 20.721 10.1123C21.1543 10.5456 21.7414 10.7898 22.3542 10.7916H27.8965C27.7574 10.5828 27.6 10.3868 27.4263 10.2058ZM28.4746 12.3333H22.3542C21.332 12.3333 20.3517 11.9272 19.6289 11.2045C18.9061 10.4817 18.5 9.50133 18.5 8.47915V2.34331C18.3623 2.32155 18.2231 2.31124 18.0837 2.31248H6.16667C5.14448 2.31248 4.16416 2.71854 3.44136 3.44134C2.71856 4.16413 2.3125 5.14446 2.3125 6.16665V30.8333C2.3125 31.8555 2.71856 32.8358 3.44136 33.5586C4.16416 34.2814 5.14448 34.6875 6.16667 34.6875H23.1327L22.0227 33.9475C20.2267 32.7528 18.754 31.1324 17.7359 29.2307C16.7178 27.329 16.1859 25.205 16.1875 23.0479V21.7298C16.1878 21.2531 16.2986 20.7829 16.5113 20.3562C16.7239 19.9296 17.0326 19.558 17.4131 19.2708H7.70833C7.5039 19.2708 7.30783 19.1896 7.16327 19.045C7.01871 18.9005 6.9375 18.7044 6.9375 18.5C6.9375 18.2955 7.01871 18.0995 7.16327 17.9549C7.30783 17.8104 7.5039 17.7291 7.70833 17.7291H21.3829C22.4744 17.2369 23.5282 16.665 24.5356 16.0179C24.9876 15.7308 25.5059 15.565 26.0406 15.5367C26.5754 15.5083 27.1083 15.6183 27.5881 15.856L27.6421 15.8791L27.8733 16.0179C28.0352 16.1258 28.251 16.2569 28.5208 16.4187V12.9037C28.5211 12.7126 28.5056 12.5219 28.4746 12.3333ZM16.1875 27.75C16.1875 27.9544 16.1063 28.1505 15.9617 28.295C15.8172 28.4396 15.6211 28.5208 15.4167 28.5208H7.70833C7.5039 28.5208 7.30783 28.4396 7.16327 28.295C7.01871 28.1505 6.9375 27.9544 6.9375 27.75C6.9375 27.5455 7.01871 27.3495 7.16327 27.2049C7.30783 27.0604 7.5039 26.9791 7.70833 26.9791H15.4167C15.6211 26.9791 15.8172 27.0604 15.9617 27.2049C16.1063 27.3495 16.1875 27.5455 16.1875 27.75ZM7.70833 22.3541H13.875C14.0794 22.3541 14.2755 22.4354 14.4201 22.5799C14.5646 22.7245 14.6458 22.9205 14.6458 23.125C14.6458 23.3294 14.5646 23.5255 14.4201 23.67C14.2755 23.8146 14.0794 23.8958 13.875 23.8958H7.70833C7.5039 23.8958 7.30783 23.8146 7.16327 23.67C7.01871 23.5255 6.9375 23.3294 6.9375 23.125C6.9375 22.9205 7.01871 22.7245 7.16327 22.5799C7.30783 22.4354 7.5039 22.3541 7.70833 22.3541ZM7.70833 8.47915H13.875C14.0794 8.47915 14.2755 8.56036 14.4201 8.70492C14.5646 8.84948 14.6458 9.04554 14.6458 9.24998C14.6458 9.45442 14.5646 9.65048 14.4201 9.79504C14.2755 9.9396 14.0794 10.0208 13.875 10.0208H7.70833C7.5039 10.0208 7.30783 9.9396 7.16327 9.79504C7.01871 9.65048 6.9375 9.45442 6.9375 9.24998C6.9375 9.04554 7.01871 8.84948 7.16327 8.70492C7.30783 8.56036 7.5039 8.47915 7.70833 8.47915ZM18.5 14.6458H7.70833C7.5039 14.6458 7.30783 14.5646 7.16327 14.42C7.01871 14.2755 6.9375 14.0794 6.9375 13.875C6.9375 13.6705 7.01871 13.4745 7.16327 13.3299C7.30783 13.1854 7.5039 13.1041 7.70833 13.1041H18.5C18.7044 13.1041 18.9005 13.1854 19.0451 13.3299C19.1896 13.4745 19.2708 13.6705 19.2708 13.875C19.2708 14.0794 19.1896 14.2755 19.0451 14.42C18.9005 14.5646 18.7044 14.6458 18.5 14.6458Z" fill="#ED5A25"/>
</svg>
