<svg width="18" height="17" viewBox="0 0 18 17" fill="none" xmlns="http://www.w3.org/2000/svg">
<path d="M12.6279 10.4381C12.0333 10.4381 11.4581 10.3414 10.9215 10.1673C10.8374 10.139 10.7471 10.1349 10.6607 10.1554C10.5744 10.1759 10.4956 10.2202 10.4332 10.2834L9.67427 11.2357C8.30621 10.5831 7.02516 9.35037 6.34354 7.93396L7.2862 7.13149C7.41672 6.99613 7.4554 6.8076 7.40222 6.63841C7.22336 6.10182 7.13151 5.52655 7.13151 4.93195C7.13151 4.67091 6.91397 4.45337 6.65293 4.45337H4.98031C4.71926 4.45337 4.40504 4.56939 4.40504 4.93195C4.40504 9.42288 8.14185 13.1548 12.6279 13.1548C12.9712 13.1548 13.1065 12.8503 13.1065 12.5844V10.9166C13.1065 10.6556 12.889 10.4381 12.6279 10.4381Z" fill="#5C5C5C"/>
<circle cx="9.04583" cy="8.51421" r="7.88571" stroke="#5C5C5C" stroke-width="1.05143"/>
</svg>
