<svg width="16" height="16" viewBox="0 0 16 16" fill="none" xmlns="http://www.w3.org/2000/svg">
<path d="M8.06671 12.3626L8.00004 12.4293L7.92671 12.3626C4.76004 9.4893 2.66671 7.5893 2.66671 5.66264C2.66671 4.3293 3.66671 3.3293 5.00004 3.3293C6.02671 3.3293 7.02671 3.99597 7.38004 4.90264H8.62004C8.97337 3.99597 9.97337 3.3293 11 3.3293C12.3334 3.3293 13.3334 4.3293 13.3334 5.66264C13.3334 7.5893 11.24 9.4893 8.06671 12.3626ZM11 1.99597C9.84004 1.99597 8.72671 2.53597 8.00004 3.38264C7.27337 2.53597 6.16004 1.99597 5.00004 1.99597C2.94671 1.99597 1.33337 3.60264 1.33337 5.66264C1.33337 8.17597 3.60004 10.236 7.03337 13.3493L8.00004 14.2293L8.96671 13.3493C12.4 10.236 14.6667 8.17597 14.6667 5.66264C14.6667 3.60264 13.0534 1.99597 11 1.99597Z" fill="#323232"/>
</svg>
