<svg width="24" height="25" viewBox="0 0 24 25" fill="none" xmlns="http://www.w3.org/2000/svg">
<g clip-path="url(#clip0_3127_467)">
<path d="M24 12.5557C24 5.92825 18.6274 0.555664 12 0.555664C5.37258 0.555664 0 5.92825 0 12.5557C0 19.1831 5.37258 24.5557 12 24.5557C18.6274 24.5557 24 19.1831 24 12.5557Z" fill="url(#paint0_linear_3127_467)"/>
<path opacity="0.1" d="M21.0316 4.66092C19.2821 7.8725 16.8079 11.1851 13.7163 14.2767C10.6247 17.3683 7.31211 19.8378 4.10527 21.5872C3.90421 21.4125 3.70895 21.2304 3.51948 21.0409C2.3742 19.9339 1.46078 18.6099 0.832481 17.1462C0.204184 15.6825 -0.126419 14.1083 -0.140048 12.5155C-0.153678 10.9227 0.149938 9.34314 0.753095 7.86889C1.35625 6.39464 2.24688 5.05523 3.37305 3.92875C4.49921 2.80226 5.83838 1.91126 7.31246 1.30769C8.78654 0.704125 10.366 0.400068 11.9588 0.413253C13.5517 0.426438 15.1259 0.756601 16.5898 1.38449C18.0537 2.01238 19.3779 2.92543 20.4853 4.0704C20.6747 4.25987 20.8568 4.45671 21.0316 4.66092Z" fill="white"/>
<path d="M14.8421 6.23999H9.1579C8.23663 6.23999 7.35308 6.60597 6.70164 7.25741C6.0502 7.90885 5.68422 8.7924 5.68422 9.71367V15.3979C5.68422 16.3192 6.0502 17.2027 6.70164 17.8542C7.35308 18.5056 8.23663 18.8716 9.1579 18.8716H14.8421C15.7634 18.8716 16.6469 18.5056 17.2984 17.8542C17.9498 17.2027 18.3158 16.3192 18.3158 15.3979V9.71367C18.3158 8.7924 17.9498 7.90885 17.2984 7.25741C16.6469 6.60597 15.7634 6.23999 14.8421 6.23999ZM17.2105 14.8989C17.2105 15.6594 16.9084 16.3887 16.3707 16.9265C15.833 17.4642 15.1036 17.7663 14.3432 17.7663H9.65685C8.89638 17.7663 8.16705 17.4642 7.62932 16.9265C7.09158 16.3887 6.78948 15.6594 6.78948 14.8989V10.2126C6.78948 9.45215 7.09158 8.72282 7.62932 8.18509C8.16705 7.64735 8.89638 7.34525 9.65685 7.34525H14.3432C15.1036 7.34525 15.833 7.64735 16.3707 8.18509C16.9084 8.72282 17.2105 9.45215 17.2105 10.2126V14.8989Z" fill="white"/>
<path d="M14.3037 10.2757L14.2737 10.2457L14.2484 10.2204C13.6514 9.62548 12.8428 9.2916 12 9.29199C11.5744 9.29489 11.1535 9.38161 10.7614 9.54721C10.3693 9.71281 10.0137 9.95405 9.71488 10.2571C9.41604 10.5602 9.17986 10.9192 9.01981 11.3136C8.85976 11.708 8.77899 12.1301 8.78212 12.5557C8.78147 13.4194 9.12195 14.2485 9.72948 14.8625C10.0271 15.1637 10.3817 15.4026 10.7726 15.5653C11.1635 15.7279 11.5829 15.8111 12.0063 15.8099C12.6414 15.7966 13.2589 15.5987 13.7836 15.2405C14.3082 14.8822 14.7172 14.3791 14.9607 13.7924C15.2043 13.2057 15.2718 12.5608 15.1552 11.9363C15.0385 11.3119 14.7427 10.7349 14.3037 10.2757ZM12 14.6967C11.5753 14.7027 11.1585 14.5822 10.8024 14.3506C10.4464 14.119 10.1673 13.7867 10.0007 13.396C9.83401 13.0054 9.78731 12.574 9.86651 12.1567C9.9457 11.7394 10.1472 11.3551 10.4454 11.0527C10.7436 10.7502 11.125 10.5433 11.5412 10.4582C11.9573 10.3732 12.3893 10.4138 12.7823 10.5749C13.1753 10.736 13.5114 11.0104 13.748 11.3631C13.9847 11.7158 14.111 12.1309 14.1111 12.5557C14.1131 12.8349 14.0602 13.1118 13.9552 13.3706C13.8502 13.6293 13.6953 13.8648 13.4992 14.0637C13.3032 14.2625 13.0698 14.4208 12.8126 14.5294C12.5554 14.638 12.2792 14.6949 12 14.6967Z" fill="white"/>
<path d="M16.1732 9.14209C16.174 9.24341 16.1549 9.3439 16.1168 9.43781C16.0787 9.53171 16.0225 9.61719 15.9514 9.68935C15.8803 9.76151 15.7956 9.81893 15.7023 9.85832C15.6089 9.89772 15.5087 9.91831 15.4074 9.91893C15.3069 9.91889 15.2075 9.89891 15.1148 9.86015C15.0221 9.82139 14.938 9.76463 14.8674 9.69314C14.7604 9.58461 14.6877 9.44707 14.6581 9.29758C14.6286 9.14808 14.6436 8.99321 14.7013 8.85216C14.7589 8.7111 14.8567 8.59008 14.9825 8.50409C15.1083 8.41809 15.2566 8.37092 15.409 8.36841C15.5873 8.36837 15.76 8.43096 15.8969 8.54525L15.9127 8.56104C15.9381 8.58177 15.9614 8.60505 15.9821 8.63051L15.9995 8.64946C16.1125 8.7887 16.1739 8.96276 16.1732 9.14209Z" fill="white"/>
</g>
<defs>
<linearGradient id="paint0_linear_3127_467" x1="3.51474" y1="4.0704" x2="20.4853" y2="21.0409" gradientUnits="userSpaceOnUse">
<stop stop-color="#FAE100"/>
<stop offset="0.15" stop-color="#FCB720"/>
<stop offset="0.3" stop-color="#FF7950"/>
<stop offset="0.5" stop-color="#FF1C74"/>
<stop offset="1" stop-color="#6C1CD1"/>
</linearGradient>
<clipPath id="clip0_3127_467">
<rect width="24" height="24" fill="white" transform="translate(0 0.555664)"/>
</clipPath>
</defs>
</svg>
