<svg width="24" height="24" viewBox="0 0 24 24" fill="none" xmlns="http://www.w3.org/2000/svg">
<path d="M12 23.5556C18.6274 23.5556 24 18.2825 24 11.7778C24 5.27309 18.6274 0 12 0C5.37258 0 0 5.27309 0 11.7778C0 18.2825 5.37258 23.5556 12 23.5556Z" fill="#007AB9"/>
<path d="M19.0008 12.8305V17.773H16.1353V13.1617C16.1353 12.0039 15.7216 11.2132 14.684 11.2132C13.8923 11.2132 13.4219 11.7455 13.2142 12.261C13.1388 12.4452 13.1193 12.701 13.1193 12.9594V17.7728H10.2535C10.2535 17.7728 10.292 9.96283 10.2535 9.15439H13.1195V10.3757C13.1137 10.3853 13.1056 10.3947 13.1005 10.4039H13.1195V10.3757C13.5003 9.78973 14.1795 8.95201 15.7021 8.95201C17.5874 8.95201 19.0008 10.1838 19.0008 12.8305ZM7.25572 5C6.27546 5 5.63414 5.64346 5.63414 6.48887C5.63414 7.31633 6.25687 7.97838 7.21811 7.97838H7.2367C8.23619 7.97838 8.85764 7.31633 8.85764 6.48887C8.83862 5.64346 8.23619 5 7.25572 5ZM5.80446 17.773H8.66915V9.15439H5.80446V17.773Z" fill="#F1F2F2"/>
</svg>
