<svg width="1440" height="228" viewBox="0 0 1440 228" fill="none" xmlns="http://www.w3.org/2000/svg">
<mask id="mask0_2466_8460" style="mask-type:alpha" maskUnits="userSpaceOnUse" x="0" y="0" width="1440" height="228">
<rect width="1440" height="228" fill="#FFF4F1"/>
</mask>
<g mask="url(#mask0_2466_8460)">
<path fill-rule="evenodd" clip-rule="evenodd" d="M1144.28 577.935C1272.27 639.359 1427.4 555.452 1490.76 390.522C1554.12 225.593 1501.74 42.0963 1373.75 -19.3285C1245.76 -80.7532 1090.63 3.15402 1027.27 168.084C963.906 333.013 1016.3 516.51 1144.28 577.935ZM1101.66 293.227C1092.63 413.123 1163.84 509.322 1260.72 508.095C1357.59 506.867 1443.45 408.677 1452.48 288.782C1461.51 168.886 1390.29 72.6863 1293.42 73.9139C1196.54 75.1416 1110.69 173.331 1101.66 293.227Z" fill="url(#paint0_linear_2466_8460)"/>
<path fill-rule="evenodd" clip-rule="evenodd" d="M-30.261 520.051C136.606 526.697 268.826 381.232 265.059 195.147C261.293 9.06151 122.968 -147.177 -43.8993 -153.823C-210.766 -160.468 -342.986 -15.0032 -339.22 171.082C-335.454 357.167 -197.128 513.406 -30.261 520.051ZM-206.769 316.732C-163.608 436.7 -43.3371 500.526 61.8649 459.292C167.067 418.058 217.362 287.379 174.201 167.411C131.041 47.4435 10.7698 -16.3828 -94.4321 24.851C-199.634 66.0849 -249.929 196.764 -206.769 316.732Z" fill="url(#paint1_linear_2466_8460)"/>
<path fill-rule="evenodd" clip-rule="evenodd" d="M675.689 100.395C738.774 102.908 788.76 47.9141 787.336 -22.4362C785.912 -92.7866 733.618 -151.853 670.533 -154.366C607.448 -156.878 557.462 -101.884 558.886 -31.534C560.31 38.8163 612.604 97.8832 675.689 100.395ZM604.544 -16.4274C620.861 28.9269 666.331 53.0567 706.103 37.4681C745.875 21.8795 764.889 -27.5245 748.572 -72.8788C732.255 -118.233 686.786 -142.363 647.014 -126.774C607.242 -111.186 588.228 -61.7816 604.544 -16.4274Z" fill="url(#paint2_linear_2466_8460)"/>
</g>
<defs>
<linearGradient id="paint0_linear_2466_8460" x1="1361.78" y1="567.691" x2="693.626" y2="-137.226" gradientUnits="userSpaceOnUse">
<stop stop-color="#FFEDE8"/>
<stop offset="1" stop-color="#FFC5AF"/>
</linearGradient>
<linearGradient id="paint1_linear_2466_8460" x1="198.537" y1="475.297" x2="-316.98" y2="402.832" gradientUnits="userSpaceOnUse">
<stop stop-color="#FFDDD3"/>
<stop offset="1" stop-color="#FFD9CB"/>
</linearGradient>
<linearGradient id="paint2_linear_2466_8460" x1="762.187" y1="83.4759" x2="567.293" y2="56.0802" gradientUnits="userSpaceOnUse">
<stop stop-color="#FFDDD3"/>
<stop offset="1" stop-color="#FFD9CB"/>
</linearGradient>
</defs>
</svg>
